<svg xmlns="http://www.w3.org/2000/svg" width="100" height="106.142" viewBox="0 0 100 106.142">
  <path id="Path_136" data-name="Path 136" d="M172.409,201.87l.107.107a25.537,25.537,0,0,0,30.592,6.775,25.932,25.932,0,0,0,8.736-6.775l.071-.107,5.563,4.528-.214.285a32.908,32.908,0,0,1-25.1,11.731A32.907,32.907,0,0,1,167.1,206.682l-.25-.285Zm61.719-7.7a42.82,42.82,0,1,0-83.9-17.186l-.035.143A42.806,42.806,0,0,0,183.6,227.505l.142.036,3.316.82-1.213,6.026c12.8-.677,23.1-4.314,30.878-10.269,9.056-6.988,14.868-17.293,17.4-29.95m-.285-36.19a50.108,50.108,0,0,1,7.345,37.581c-2.888,14.369-9.555,26.135-20.11,34.229-9.876,7.63-23.1,11.909-39.648,11.909h-4.386l1.64-7.987a49.976,49.976,0,0,1-35.478-58.154l.036-.179a49.96,49.96,0,0,1,90.6-17.4" transform="translate(-142.177 -135.554)" fill="#86f474"/>
</svg>
